<?xml version="1.0" encoding="UTF-8"?>
<!DOCTYPE svg PUBLIC "-//W3C//DTD SVG 1.1//EN" "http://www.w3.org/Graphics/SVG/1.1/DTD/svg11.dtd">
<svg version="1.1" xmlns="http://www.w3.org/2000/svg" xmlns:xlink="http://www.w3.org/1999/xlink" width="94" height="116"  xml:space="preserve" id="noun_81434_ccCanvas">
    <!-- Generated by PaintCode (www.paintcodeapp.com) -->
    <path id="noun_81434_ccCanvas-bezier2" stroke="none" fill="rgb(0, 0, 0)" d="M 76.94,29 L 46.28,60.2 15.62,29 C 14.3,27.67 12.32,27.67 10.99,29 9.67,30.34 9.67,32.35 10.99,33.68 L 44.07,67.11 C 44.74,67.78 45.62,68 46.5,68 47.38,68 48.26,67.78 48.93,67.11 L 82.01,33.68 C 83.33,32.35 83.33,30.34 82.01,29 80.46,27.89 78.26,27.89 76.94,29 Z M 76.94,29" />
    <rect id="noun_81434_ccCanvas-rectangle" stroke="none" fill="rgb(0, 0, 0)" x="28" y="17" width="40" height="4" />
    <rect id="noun_81434_ccCanvas-rectangle2" stroke="none" fill="rgb(0, 0, 0)" x="33" y="26" width="30" height="4" />
    <rect id="noun_81434_ccCanvas-rectangle3" stroke="none" fill="rgb(0, 0, 0)" x="38" y="36" width="20" height="4" />
</svg>
