<?xml version="1.0" encoding="UTF-8"?>
<!DOCTYPE svg PUBLIC "-//W3C//DTD SVG 1.1//EN" "http://www.w3.org/Graphics/SVG/1.1/DTD/svg11.dtd">
<svg version="1.1" xmlns="http://www.w3.org/2000/svg" xmlns:xlink="http://www.w3.org/1999/xlink" width="94" height="116"  xml:space="preserve" id="noun_81434_ccCanvas">
    <!-- Generated by PaintCode (www.paintcodeapp.com) -->
    <path id="noun_81434_ccCanvas-bezier" stroke="none" fill="rgb(0, 0, 0)" d="M 47,12 C 22.7,12 3,31.7 3,56 3,80.3 22.7,100 47,100 71.3,100 91,80.3 91,56 91,31.7 71.3,12 47,12 Z M 47,97 C 24.4,97 6,78.6 6,56 6,33.4 24.4,15 47,15 69.6,15 88,33.4 88,56 88,78.6 69.6,97 47,97 Z M 47,97" />
    <path id="noun_81434_ccCanvas-bezier2" stroke="none" fill="rgb(0, 0, 0)" d="M 60.9,49.9 L 47,63.9 33.1,49.9 C 32.5,49.3 31.6,49.3 31,49.9 30.4,50.5 30.4,51.4 31,52 L 46,67 C 46.3,67.3 46.7,67.4 47.1,67.4 47.5,67.4 47.9,67.3 48.2,67 L 63.2,52 C 63.8,51.4 63.8,50.5 63.2,49.9 62.5,49.4 61.5,49.4 60.9,49.9 Z M 60.9,49.9" />
</svg>
